<svg width="40" height="40" viewBox="0 0 40 40" fill="none" xmlns="http://www.w3.org/2000/svg">
<path d="M10.6824 25.063L16.7167 21.6773L16.8182 21.3832L16.7167 21.2196H16.4227L15.4142 21.1575L11.9663 21.0643L8.97604 20.94L6.079 20.7847L5.35005 20.6294L4.66669 19.7286L4.73709 19.2792L5.35008 18.8671L6.22808 18.9437L8.16843 19.0763L11.08 19.2772L13.1922 19.4014L16.3212 19.7265H16.8182L16.8886 19.5256L16.7188 19.4014L16.5863 19.2772L13.5732 17.2353L10.3117 15.0775L8.60331 13.8351L7.67971 13.2055L7.2138 12.6153L7.01291 11.3273L7.8516 10.4037L8.97812 10.4804L9.26597 10.557L10.407 11.435L12.8443 13.3215L16.0272 15.6657L16.4931 16.0529L16.6795 15.9204L16.7023 15.8272L16.4931 15.4772L14.7619 12.3482L12.9147 9.16539L12.0926 7.84628L11.8752 7.05523C11.7986 6.7301 11.7427 6.45677 11.7427 6.12336L12.6973 4.82703L13.2253 4.65723L14.4989 4.82703L15.0353 5.29297L15.8263 7.10288L17.1081 9.95229L19.0961 13.8268L19.678 14.9761L19.9886 16.0405L20.1046 16.3656H20.3055V16.1792L20.469 13.9966L20.7714 11.317L21.0654 7.86906L21.1669 6.89785L21.6473 5.73404L22.602 5.10455L23.3475 5.46072L23.9605 6.33875L23.8755 6.90615L23.5111 9.27515L22.7966 12.9861L22.3307 15.471H22.602L22.9126 15.1604L24.1696 13.4913L26.2818 10.8511L27.2137 9.80321L28.3009 8.64563L28.9987 8.09479H30.3178L31.2891 9.53817L30.8542 11.0291L29.4957 12.7521L28.3692 14.212L26.7539 16.3863L25.7455 18.1258L25.8387 18.2646L26.0789 18.2418L29.7277 17.4652L31.6991 17.1091L34.0515 16.7052L35.1159 17.2022L35.2319 17.7075L34.8135 18.7409L32.2975 19.3621L29.3466 19.9523L24.9524 20.9918L24.8985 21.0312L24.9607 21.1078L26.9404 21.2942L27.7873 21.3397H29.8602L33.7202 21.6276L34.7287 22.2944L35.3334 23.1103L35.2319 23.7315L33.6788 24.5226L31.5831 24.0255L26.6919 22.8618L25.0145 22.4434H24.7826V22.5822L26.1804 23.9489L28.742 26.262L31.9497 29.244L32.1132 29.9812L31.7011 30.5631L31.2663 30.501L28.4479 28.3805L27.3607 27.4258L24.8985 25.3529H24.7349V25.5704L25.3023 26.4008L28.2988 30.9048L28.4541 32.286L28.2367 32.7354L27.4601 33.0066L26.607 32.8513L24.853 30.3892L23.0431 27.6163L21.5832 25.1313L21.4051 25.2328L20.5436 34.5121L20.1398 34.9864L19.2079 35.3425L18.4314 34.7524L18.0193 33.7977L18.4314 31.9112L18.9284 29.449L19.3322 27.4921L19.6966 25.061L19.9141 24.2533L19.8996 24.1995L19.7215 24.2223L17.8888 26.7383L15.1015 30.5051L12.8961 32.8658L12.368 33.075L11.4527 32.6008L11.5376 31.7538L12.0491 31L15.1015 27.1173L16.9425 24.711L18.1311 23.3215L18.1228 23.1206H18.0524L9.9452 28.3846L8.50182 28.571L7.8806 27.9891L7.95723 27.0344L8.25125 26.7238L10.6886 25.0464L10.6803 25.0548L10.6824 25.063Z" fill="white" fill-opacity="0.5"/>
</svg>
